HIERARCHY
ROOT Hips
{
  OFFSET -32.5998 29.0326 120.673
  CHANNELS 6 Xposition Yposition Zposition Zrotation Xrotation Yrotation
  JOINT LeftUpLeg
  {
    OFFSET 8.64259 1.95398 -2.38835
    CHANNELS 3 Zrotation Xrotation Yrotation
    JOINT LeftLeg
    {
      OFFSET 43.7702 0 0
      CHANNELS 3 Zrotation Xrotation Yrotation
      JOINT LeftFoot
      {
        OFFSET 40.6238 0 0
        CHANNELS 3 Zrotation Xrotation Yrotation
        JOINT LeftToeBase
        {
          OFFSET 12.7242 0 0
          CHANNELS 3 Zrotation Xrotation Yrotation
          End Site
          {
            OFFSET 0 0 0
          }
        }
      }
    }
  }
  JOINT RightUpLeg
  {
    OFFSET -8.2249 1.95398 -2.59336
    CHANNELS 3 Zrotation Xrotation Yrotation
    JOINT RightLeg
    {
      OFFSET 43.5653 0 0
      CHANNELS 3 Zrotation Xrotation Yrotation
      JOINT RightFoot
      {
        OFFSET 40.6238 0 0
        CHANNELS 3 Zrotation Xrotation Yrotation
        JOINT RightToeBase
        {
          OFFSET 12.7242 0 0
          CHANNELS 3 Zrotation Xrotation Yrotation
          End Site
          {
            OFFSET 0 0 0
          }
        }
      }
    }
  }
  JOINT Spine
  {
    OFFSET 0.165834 0.87714 6.61349
    CHANNELS 3 Zrotation Xrotation Yrotation
    JOINT Spine1
    {
      OFFSET 7.38963 1.71661e-005 0
      CHANNELS 3 Zrotation Xrotation Yrotation
      JOINT Spine2
      {
        OFFSET 11.9445 1.14441e-005 0
        CHANNELS 3 Zrotation Xrotation Yrotation
        JOINT Spine3
        {
          OFFSET 14.7254 4.19617e-005 0
          CHANNELS 3 Zrotation Xrotation Yrotation
          JOINT Spine4
          {
            OFFSET 10.9679 0 0
            CHANNELS 3 Zrotation Xrotation Yrotation
            JOINT RightShoulder
            {
              OFFSET 2.46616 -1.6653 3.69651
              CHANNELS 3 Zrotation Xrotation Yrotation
              JOINT RightArm
              {
                OFFSET 13.0012 0 0
                CHANNELS 3 Zrotation Xrotation Yrotation
                JOINT RightForeArm
                {
                  OFFSET 28.7848 1.62311e-005 0
                  CHANNELS 3 Zrotation Xrotation Yrotation
                  JOINT RightHand
                  {
                    OFFSET 26.5688 1.62095e-005 0
                    CHANNELS 3 Zrotation Xrotation Yrotation
                    End Site
                    {
                      OFFSET 0 0 0
                    }
                  }
                }
              }
            }
            JOINT LeftShoulder
            {
              OFFSET 2.38034 -1.29275 -3.7523
              CHANNELS 3 Zrotation Xrotation Yrotation
              JOINT LeftArm
              {
                OFFSET 16.3182 6.07031e-005 0
                CHANNELS 3 Zrotation Xrotation Yrotation
                JOINT LeftForeArm
                {
                  OFFSET 27.0901 0 0
                  CHANNELS 3 Zrotation Xrotation Yrotation
                  JOINT LeftHand
                  {
                    OFFSET 24.5451 1.51738e-005 0
                    CHANNELS 3 Zrotation Xrotation Yrotation
                    End Site
                    {
                      OFFSET 0 0 0
                    }
                  }
                }
              }
            }
            JOINT Neck
            {
              OFFSET 5.0226 -0.0266342 0
              CHANNELS 3 Zrotation Xrotation Yrotation
              JOINT Head
              {
                OFFSET 6.69364 2.86102e-005 0
                CHANNELS 3 Zrotation Xrotation Yrotation
                End Site
                {
                  OFFSET 0 0 0
                }
              }
            }
          }
        }
      }
    }
  }
}
MOTION
Frames:	17
Frame Time:	0.0416667
41.5427 91.6768 -202.87 -165.104 -86.8455 -159.777 -165.392 2.8656 100.425 -83.42 6.24832 2.57456 61.1895 -1.18774 5.45903 26.7794 1.98888 -6.70854 177.389 33.5864 102.09 -52.6897 -17.8768 0.666614 70.1767 -6.56381 -6.78577 17.0962 2.93503 6.74432 -1.90669 7.96098 -91.4464 10.9022 -4.46483 -2.45661 -0.762981 -4.56858 -2.25749 -23.3214 -3.52046 -3.6852 -3.30871 -3.52047 -3.68522 95.2187 -26.2367 -97.1881 40.8896 6.17175 26.3077 -51.5763 6.24913 -89.7422 -11.9751 2.76404 -32.6301 -89.9345 -48.149 78.4232 -4.42 30.5189 -31.2767 77.6251 -21.8197 -83.6069 -6.75199 -0.193717 -1.67085 18.6938 13.909 3.90168 -16.9639 12.1134 2.01202 
41.0868 91.2545 -196.007 -177.361 -85.7944 -168.209 -168.265 13.8419 103.461 -92.7706 7.84999 4.06513 64.9059 1.53946 8.60304 22.2904 3.03617 -12.4572 176.233 28.3309 105.963 -54.7058 -16.6538 1.92193 74.3777 -10.2603 -7.2686 18.2392 1.99434 8.13005 -1.49445 8.25245 -91.8565 10.3022 -3.82613 -3.35647 -1.36705 -3.97006 -3.18484 -23.8921 -2.64156 -4.35019 -3.87946 -2.64154 -4.35019 94.5903 -28.6934 -97.8835 38.0284 10.8176 15.0242 -44.063 -0.311978 -85.7685 -2.99423 -0.273727 -2.69986 -90.6665 -51.144 77.9888 -11.8673 30.7269 -18.9628 79.3601 -20.8045 -83.751 -10.1642 0.0779349 -6.97079 20.1576 12.9025 4.0429 -16.088 10.9968 2.25225 
41.0527 91.1099 -188.967 170.921 -85.2527 -179.854 -172.973 22.9524 102.246 -96.2583 8.75037 4.58517 67.9321 3.92301 9.29272 18.9971 1.84684 -11.8773 175.694 22.8835 105.916 -56.166 -16.7067 2.17764 78.8055 -14.0801 -8.20061 18.7758 1.56906 8.77675 -1.20529 8.33145 -91.9181 10.1475 -3.27606 -3.53172 -1.52369 -3.42824 -3.38422 -24.036 -2.06433 -4.35188 -4.02338 -2.06433 -4.35188 93.7893 -28.7202 -99.5276 37.3966 10.8832 4.31357 -41.0599 0.986548 -87.0733 -6.34541 -0.148484 -2.58473 -90.1494 -51.4754 78.8202 -20.7391 26.9948 -4.95159 79.5317 -22.8632 -84.9832 -7.28246 -0.10761 -3.80895 19.1974 11.5361 4.85547 -14.0751 9.53049 1.98624 
41.2714 91.004 -181.834 170.77 -85.5516 177.983 -175.916 31.0315 99.1118 -94.3431 8.23956 4.50025 70.7257 5.80784 9.6835 19.4829 1.7478 -11.3773 175.51 17.7942 103.61 -57.0424 -16.4908 1.5341 83.4616 -17.6101 -7.69038 20.2719 1.37215 7.65458 -0.756892 8.23299 -91.6954 10.3652 -2.28393 -3.1694 -1.30736 -2.42114 -3.06592 -23.8176 -1.22656 -3.70861 -3.80497 -1.22655 -3.70861 93.3147 -28.39 -100.603 35.2814 11.1691 -4.09856 -38.5036 2.01835 -89.7032 -7.98645 -0.298931 -0.872889 -89.1265 -51.2696 80.2857 -25.7502 24.7822 7.68993 78.6902 -26.8351 -86.7855 -4.77599 -0.129549 -2.57212 17.8765 9.30296 3.54248 -13.2084 7.71343 3.31093 
41.6063 91.5572 -174.166 -171.58 -85.2896 -166.639 -176.713 35.811 96.1085 -86.6557 4.93883 4.14784 73.643 7.31433 8.69753 19.5527 0.749531 -9.26969 175.395 10.6986 100.459 -54.896 -19.0873 0.547739 85.0676 -19.2273 -7.92496 21.4547 0.677632 8.43067 0.0365265 8.10272 -91.3006 10.6555 -0.525892 -2.53769 -1.01776 -0.637028 -2.51211 -23.5331 0.260835 -2.57842 -3.52044 0.26083 -2.57842 93.3066 -26.8514 -101.094 33.4877 12.071 -7.98161 -38.9819 4.55696 -94.6131 -9.49696 -0.353881 -0.887399 -87.718 -49.3579 82.0331 -26.8535 25.3143 18.6202 76.6779 -31.089 -88.9022 -2.4789 -0.092327 -2.41212 15.2176 6.47126 -0.0263086 -11.6103 5.93204 5.23676 
41.9376 92.6809 -166.286 -152.833 -83.6278 -150.167 -176.77 37.3705 94.1406 -74.7981 2.05269 3.4183 73.1733 6.87547 8.11199 20.7108 1.24374 -9.52528 174.675 2.89052 96.8096 -52.392 -22.4577 -0.766645 82.9848 -18.1789 -9.34061 25.7007 -1.18624 9.53788 0.885515 8.05782 -90.9398 10.7651 1.32994 -1.99123 -0.906833 1.24104 -2.04781 -23.4396 1.86683 -1.49959 -3.42691 1.86684 -1.49958 93.1119 -23.4639 -102.681 31.6313 14.4274 -7.5576 -34.142 6.24785 -99.6445 -8.75285 -0.311702 -1.12724 -86.3613 -48.6186 83.9731 -24.5856 27.9086 26.758 75.3496 -34.6415 -89.6954 -1.46203 -0.0709168 -1.89553 12.8203 4.45927 -1.65044 -10.6744 4.45827 4.90665 
42.3426 94.065 -157.408 -146.357 -81.1143 -145.905 -177.327 34.7674 92.8316 -59.896 0.882141 2.75194 71.2782 6.02724 6.82473 21.5326 1.09075 -8.63095 172.696 -5.63987 92.7807 -47.7786 -26.0211 -2.13615 78.8778 -14.6832 -8.68932 29.4638 -2.74068 10.5671 1.78826 8.15428 -90.5723 10.5928 3.29863 -1.43228 -1.07498 3.2324 -1.57619 -23.643 3.57647 -0.373567 -3.63036 3.57647 -0.373579 93.586 -19.8116 -102.906 29.5771 16.6974 -5.16318 -29.7468 7.20394 -105.412 -10.942 -0.510829 0.289486 -85.6701 -45.7202 84.581 -22.8629 29.8116 32.5415 74.5258 -37.2578 -90.5098 -1.24442 -0.0697456 -2.25459 11.9073 2.77496 -3.40083 -10.1721 3.35803 3.04086 
42.5982 95.2622 -148.261 -141.739 -79.4011 -143.544 -177.994 30.2801 92.0617 -42.4351 4.1173 2.04418 67.4193 4.78478 5.39937 23.4732 -0.56097 -3.52104 169.429 -13.337 84.9101 -42.0571 -31.4037 -3.87757 73.6432 -10.0239 -6.45165 30.382 -3.38449 12.1154 2.51446 8.1959 -90.2171 10.5064 4.9089 -0.868425 -1.15575 4.86593 -1.08413 -23.765 4.94237 0.650755 -3.75233 4.94238 0.650757 93.93 -16.3416 -103.549 26.3624 16.8593 -1.63629 -26.4959 8.19957 -109.772 -10.1048 -0.361396 -1.12133 -85.2559 -41.2964 84.5699 -22.9967 29.2244 37.62 74.2753 -39.6746 -91.8182 -0.700803 -0.0812635 -3.68038 10.5115 1.38103 -6.04496 -8.83712 2.60192 3.06966 
42.8368 95.79 -138.955 -135.339 -77.9892 -139.717 -178.595 24.5051 91.5279 -23.4227 7.29744 1.38975 61.3229 2.87489 2.40707 25.4918 0.0300738 -3.15447 166.431 -19.1247 78.9128 -39.2791 -36.917 -7.26646 69.8845 -6.65244 -4.29841 25.6738 -1.26814 9.88406 3.06864 8.11884 -89.8355 10.655 6.18719 -0.235718 -1.00122 6.1708 -0.508857 -23.6494 5.9709 1.64151 -3.63678 5.97091 1.64152 94.1886 -12.8462 -104.451 23.0237 15.3459 1.60699 -24.7117 9.63487 -113.357 -9.42551 -0.279762 -1.81486 -84.2342 -35.1545 85.3399 -25.034 27.652 42.6316 73.8341 -42.1737 -93.3706 1.35151 -0.059485 -3.41565 7.47779 0.776059 -8.46291 -6.78038 2.39232 3.35928 
42.6648 95.6057 -130.266 -123.072 -76.3991 -127.453 -178.349 20.2489 94.251 -7.27621 12.429 0.805462 55.0029 1.00912 -0.539993 25.4155 -1.84199 0.964359 167.793 -22.065 78.5708 -40.3662 -33.879 -10.325 69.8907 -6.39499 -4.86082 19.4404 0.946118 9.9051 3.56775 7.82152 -89.7692 11.2581 7.20779 -0.25367 -0.392826 7.18961 -0.572325 -23.0814 6.94911 1.93509 -3.0688 6.94911 1.93508 94.844 -8.16417 -105.031 21.6418 12.6398 3.32437 -22.0144 10.5234 -116.141 -8.21513 -0.240511 -1.87927 -81.9772 -28.9621 88.7079 -27.8955 25.9733 46.5156 74.6059 -44.8813 -94.2878 1.24423 -0.140802 -5.96804 4.61549 1.22593 -8.47901 -4.66411 2.70421 2.10638 
42.425 95.219 -121.799 -115.089 -73.9558 -118.802 -178.371 21.1708 97.2643 -8.61147 18.8235 1.76 56.4269 0.715793 -0.541127 20.147 -5.94201 4.50808 168.691 -23.866 78.4791 -41.268 -23.3784 -11.0376 72.9068 -8.39907 -5.42328 18.9267 1.86947 7.7391 3.88598 7.55358 -89.7791 11.8055 7.8322 -0.390048 0.158092 7.8074 -0.73653 -22.5597 7.58513 1.99591 -2.5471 7.58512 1.9959 95.4547 -4.66999 -105.16 22.0913 12.0492 5.54384 -14.5535 7.75219 -119.492 -9.37999 -0.148126 -3.49393 -80.5899 -22.7992 90.8613 -30.074 22.7111 51.3664 73.0487 -47.7362 -97.189 1.71047 -0.167923 -6.54893 2.26999 2.07842 -8.39226 -2.40275 3.39398 0.870394 
42.191 94.1652 -113.317 -113.267 -72.0981 -115.636 -177.56 20.5548 100.018 -11.5475 22.7709 1.77978 56.1192 0.590314 -0.036159 18.516 -5.83958 2.79481 168.631 -23.9454 78.7375 -45.2285 -10.1079 -10.2853 76.1287 -9.7654 -5.5387 15.055 3.25435 8.06111 3.86066 7.41799 -89.8713 12.084 7.73594 -0.592186 0.435928 7.70233 -0.934136 -22.2793 7.55411 1.77394 -2.26666 7.55411 1.77393 95.2719 -5.10588 -105.492 21.9557 14.2398 8.95983 -7.54404 3.31504 -124.607 -11.854 -0.121803 -4.14366 -80.2789 -20.8225 91.3341 -29.8408 16.9584 55.6653 68.0638 -49.1619 -102.747 2.68256 -0.216938 -7.22554 2.15333 3.10483 -8.80196 -1.73628 4.46544 0.782624 
41.873 92.849 -105.115 -119.245 -70.5209 -120.736 -177.203 20.7625 101.108 -22.5094 22.622 3.25911 54.7625 -1.90237 -3.3292 21.4603 -6.04305 5.93151 167.594 -23.8516 78.4127 -52.2658 1.13572 -9.20125 77.3849 -10.418 -6.50921 14.7749 3.95762 6.53317 3.52005 7.57748 -89.9801 11.7607 7.01039 -0.70026 0.108338 6.97275 -1.00963 -22.5756 6.89512 1.44942 -2.56301 6.89514 1.44942 94.3968 -8.56665 -106.143 21.9931 16.6295 14.4539 -4.86925 0.660268 -131.01 -13.3723 0.0206807 -5.5212 -80.4074 -23.4031 91.318 -27.9266 12.5228 56.0035 63.8172 -48.8706 -107.19 2.70884 -0.209443 -7.04971 3.36798 4.62795 -8.07141 -2.08178 5.92262 0.528495 
41.5256 91.0319 -97.8787 -122.739 -70.3749 -124.075 -176.915 20.9988 102.395 -32.0663 26.6732 4.23991 54.5353 -2.81911 -3.49344 43.9104 5.60697 1.5254 167.941 -19.6876 79.9678 -64.4983 3.84969 -7.71644 77.1766 -11.0418 -10.6544 15.8789 3.31691 7.03692 3.07609 7.73034 -89.9944 11.4431 6.12315 -0.610661 -0.213671 6.09033 -0.880564 -22.8619 6.02251 1.26472 -2.84926 6.02251 1.26472 94.5063 -11.9996 -104.002 27.3443 12.4845 18.1123 -6.49101 3.98908 -134.633 -12.1321 -0.0906971 -4.48898 -81.0459 -29.3352 90.5725 -25.176 10.941 48.9275 63.8939 -46.9323 -107.056 1.84316 -0.120801 -5.24999 6.10103 5.82269 -7.32128 -1.95288 7.11612 0.635561 
41.0379 89.4328 -92.0557 -123.42 -72.3506 -128.556 -174.852 24.733 99.184 -43.9484 28.6193 2.04145 65.1213 3.31769 -1.07688 39.4846 2.72373 4.91094 168.519 -10.2139 80.2655 -79.6872 2.8007 -6.4192 80.0171 -11.756 -7.72213 15.6997 3.47237 6.82317 2.18658 7.99744 -89.4393 10.8768 4.61302 0.69041 -0.78597 4.63893 0.486272 -23.3767 4.19181 2.04711 -3.36403 4.19181 2.0471 94.7423 -17.1942 -101.174 36.433 4.13282 19.1472 -11.2276 10.8853 -130.22 -10.0017 -0.0197096 -5.11626 -82.1976 -41.0464 89.7266 -14.3302 8.47616 34.8656 59.2157 -41.6667 -109.38 -0.262969 -0.0875501 -3.67263 12.5848 7.93681 -6.34265 -3.83254 9.3156 -1.57374 
40.0425 89.3213 -86.9922 -127.256 -71.1826 -136.875 -172.276 19.4157 96.0718 -44.0795 28.9563 0.0356943 68.7585 5.29807 -2.16752 41.9185 3.91616 4.46469 169.965 -1.74669 80.485 -90.7129 -3.80242 -6.00598 80.8636 -13.7327 -8.56581 14.9479 2.43318 10.3237 1.38355 8.51838 -88.7029 9.79987 3.34535 2.30823 -1.86854 3.44367 2.15869 -24.4088 2.49729 3.20673 -4.39617 2.4973 3.20673 94.4591 -21.1963 -100.367 44.57 -1.49974 21.0347 -19.5636 15.5787 -118.336 -10.7453 -0.342627 -1.55957 -86.5318 -50.1232 83.9499 -3.00651 6.76368 17.2277 57.4236 -36.3919 -107.931 -2.3068 -0.0874555 -1.25994 19.04 10.2146 -7.3223 -8.37904 12.1653 -1.83508 
38.8892 89.4145 -82.1477 -125.972 -68.5872 -135.882 -170.309 14.3537 96.9416 -44.5644 29.0303 -0.72818 70.2228 6.25732 -0.661759 47.5472 6.70102 2.51842 172.576 6.92462 84.6488 -96.1822 -7.0231 -5.19478 80.5072 -14.3307 -8.36909 17.8775 0.440193 13.0592 0.859911 8.6779 -88.4424 9.47865 2.41591 2.90527 -2.19306 2.54138 2.79618 -24.7099 1.43168 3.49642 -4.69724 1.43167 3.49641 94.3091 -22.7846 -100.198 51.9184 -5.68425 24.6066 -19.4787 13.3043 -105.03 -16.1019 -0.896107 1.2933 -90.2752 -52.3655 78.8236 3.94488 5.89502 -1.56858 61.7529 -32.579 -101.939 -2.49466 -0.0946718 -0.473388 16.5543 13.738 -7.40423 -5.89032 15.4046 -1.46968 
